<?xml version="1.0" encoding="utf-8"?>
<!-- Generator: Adobe Illustrator 24.0.2, SVG Export Plug-In . SVG Version: 6.00 Build 0)  -->
<svg version="1.1" id="Calque_1" xmlns="http://www.w3.org/2000/svg" xmlns:xlink="http://www.w3.org/1999/xlink" x="0px" y="0px"
	 viewBox="0 0 1000 1000" style="enable-background:new 0 0 1000 1000;" xml:space="preserve">
<style type="text/css">
	.st0{fill:#779E91;}
	.st1{fill:#B9A3CC;}
	.st2{fill:url(#SVGID_1_);}
	.st3{fill:#CCCCCC;}
	.st4{fill:url(#SVGID_2_);}
	.st5{fill:url(#SVGID_3_);}
	.st6{fill:url(#SVGID_4_);}
	.st7{fill:url(#SVGID_5_);}
	.st8{fill:url(#SVGID_6_);}
</style>
<g>
	<path class="st0" d="M679.27,760.48c-77.98,24.32-111.34,40.77-125.91,75.67c0,0-9.73,19.39-0.66,47.97
		C724.32,858.65,856,710.71,856,532c0-8-0.27-15.94-0.79-23.82c-7.47,17.93-18.72,47.42-26.14,78.32
		C817.13,636.28,789.39,722.2,679.27,760.48z"/>
</g>
<path class="st1" d="M586.09,621.08c0,0,27.19-12.67,69.28-25.48c42.08-12.81,64.33-22.95,76.58-40.45
	c12.25-17.5,34.48-30.12,27.45,14.64c0,0-2.12,38.5-54.05,60.1c-32.15,13.96-96.58,25.73-56.7,42.74c0,0,44.77,8.26,82.92-26.85
	c38.15-35.12,61.3-81.27,80.77-122.42c19.47-41.15,31.81-48.72,35.49-53.72c0.46-0.63,1.28-1.4,2.33-2.19
	C819.79,301.65,674.57,176,500,176c-174.67,0-319.95,125.8-350.21,291.73c0.87,0.69,1.55,1.35,1.96,1.91
	c3.68,5,16.02,12.57,35.49,53.72c19.47,41.15,42.63,87.3,80.77,122.42c38.15,35.11,82.92,26.85,82.92,26.85
	c39.88-17.01-24.55-28.78-56.7-42.74c-51.93-21.6-54.05-60.1-54.05-60.1c-7.03-44.76,15.2-32.13,27.45-14.64
	c12.25,17.5,34.5,27.64,76.58,40.45c42.08,12.81,69.28,25.48,69.28,25.48c81.48,47.94,75.34,172.02,75.34,172.02
	c-4.42,42-15.18,71.85-27.12,92.86C474.29,887.3,487.06,888,500,888c12.8,0,25.44-0.68,37.89-2c-11.96-21.01-22.72-50.88-27.15-92.9
	C510.75,793.1,504.61,669.02,586.09,621.08z"/>
<g>
	<path class="st0" d="M446.22,836.15c-14.57-34.9-47.93-51.35-125.91-75.67c-110.12-38.28-137.86-124.2-149.81-173.97
		c-7.3-30.41-18.31-59.46-25.78-77.46c-0.48,7.59-0.73,15.24-0.73,22.95c0,178.57,131.47,326.42,302.89,352.06
		C455.94,855.51,446.22,836.15,446.22,836.15z"/>
</g>
<g>
	<radialGradient id="SVGID_1_" cx="470.1441" cy="125.2533" r="121.6703" gradientUnits="userSpaceOnUse">
		<stop  offset="0" style="stop-color:#F8F8F8"/>
		<stop  offset="1" style="stop-color:#BACDE6"/>
	</radialGradient>
	<circle class="st2" cx="457" cy="149.95" r="58.75"/>
	<path class="st3" d="M457,91.45c32.26,0,58.5,26.24,58.5,58.5s-26.24,58.5-58.5,58.5s-58.5-26.24-58.5-58.5S424.74,91.45,457,91.45
		 M457,90.95c-32.58,0-59,26.42-59,59s26.42,59,59,59s59-26.42,59-59S489.58,90.95,457,90.95L457,90.95z"/>
</g>
<g>
	<radialGradient id="SVGID_2_" cx="656.0847" cy="328.4779" r="101.6802" gradientUnits="userSpaceOnUse">
		<stop  offset="0" style="stop-color:#F8F8F8"/>
		<stop  offset="1" style="stop-color:#BACDE6"/>
	</radialGradient>
	<circle class="st4" cx="629" cy="358.95" r="58.75"/>
	<path class="st3" d="M629,300.45c32.26,0,58.5,26.24,58.5,58.5s-26.24,58.5-58.5,58.5s-58.5-26.24-58.5-58.5
		S596.74,300.45,629,300.45 M629,299.95c-32.58,0-59,26.42-59,59s26.42,59,59,59s59-26.42,59-59S661.58,299.95,629,299.95
		L629,299.95z"/>
</g>
<g>
	<radialGradient id="SVGID_3_" cx="622.6549" cy="392.5444" r="238.222" gradientUnits="userSpaceOnUse">
		<stop  offset="0" style="stop-color:#FFFFFF"/>
		<stop  offset="1" style="stop-color:#BACDE6"/>
	</radialGradient>
	<circle class="st5" cx="552.21" cy="462.65" r="121.35"/>
	<path class="st3" d="M552.21,341.55c32.35,0,62.76,12.6,85.63,35.47c22.87,22.87,35.47,53.28,35.47,85.63s-12.6,62.76-35.47,85.63
		c-22.87,22.87-53.28,35.47-85.63,35.47s-62.76-12.6-85.63-35.47c-22.87-22.87-35.47-53.28-35.47-85.63s12.6-62.76,35.47-85.63
		S519.86,341.55,552.21,341.55 M552.21,341.05c-67.16,0-121.6,54.44-121.6,121.6s54.44,121.6,121.6,121.6
		c67.16,0,121.6-54.44,121.6-121.6S619.37,341.05,552.21,341.05L552.21,341.05z"/>
</g>
<g>
	<radialGradient id="SVGID_4_" cx="556.1172" cy="261.1248" r="39.0379" gradientUnits="userSpaceOnUse">
		<stop  offset="0" style="stop-color:#F8F8F8"/>
		<stop  offset="1" style="stop-color:#BACDE6"/>
	</radialGradient>
	<path class="st6" d="M551.9,287.9c-10.39,0-18.85-8.46-18.85-18.85c0-10.39,8.46-18.85,18.85-18.85c10.39,0,18.85,8.46,18.85,18.85
		C570.75,279.44,562.29,287.9,551.9,287.9z"/>
	<path class="st3" d="M551.9,250.45c10.26,0,18.6,8.34,18.6,18.6s-8.34,18.6-18.6,18.6s-18.6-8.34-18.6-18.6
		S541.64,250.45,551.9,250.45 M551.9,249.95c-10.55,0-19.1,8.55-19.1,19.1c0,10.55,8.55,19.1,19.1,19.1c10.55,0,19.1-8.55,19.1-19.1
		C571,258.5,562.45,249.95,551.9,249.95L551.9,249.95z"/>
</g>
<g>
	<radialGradient id="SVGID_5_" cx="413.6593" cy="217.0268" r="186.3808" gradientUnits="userSpaceOnUse">
		<stop  offset="0" style="stop-color:#F8F8F8"/>
		<stop  offset="1" style="stop-color:#BACDE6"/>
	</radialGradient>
	<circle class="st7" cx="368.5" cy="306.45" r="80.25"/>
	<path class="st3" d="M368.5,226.45c44.11,0,80,35.89,80,80s-35.89,80-80,80s-80-35.89-80-80S324.39,226.45,368.5,226.45
		 M368.5,225.95c-44.46,0-80.5,36.04-80.5,80.5s36.04,80.5,80.5,80.5s80.5-36.04,80.5-80.5S412.96,225.95,368.5,225.95L368.5,225.95
		z"/>
</g>
<g>
	<radialGradient id="SVGID_6_" cx="338.6582" cy="457.7283" r="72.2775" gradientUnits="userSpaceOnUse">
		<stop  offset="0" style="stop-color:#F8F8F8"/>
		<stop  offset="1" style="stop-color:#BACDE6"/>
	</radialGradient>
	<path class="st8" d="M330.85,507.3c-19.24,0-34.9-15.66-34.9-34.9c0-19.24,15.66-34.9,34.9-34.9c19.24,0,34.9,15.66,34.9,34.9
		C365.75,491.64,350.09,507.3,330.85,507.3z"/>
	<path class="st3" d="M330.85,437.75c19.11,0,34.65,15.54,34.65,34.65s-15.54,34.65-34.65,34.65c-19.11,0-34.65-15.54-34.65-34.65
		S311.74,437.75,330.85,437.75 M330.85,437.25c-19.41,0-35.15,15.74-35.15,35.15s15.74,35.15,35.15,35.15
		c19.41,0,35.15-15.74,35.15-35.15S350.26,437.25,330.85,437.25L330.85,437.25z"/>
</g>
</svg>
